<svg width="256" height="256" viewBox="0 0 256 256" xmlns="http://www.w3.org/2000/svg"><g fill="none" fill-rule="evenodd"><path d="M128,256 C224.187867,256 256,224.187867 256,128 C256,31.8121331 224.187867,0 128,0 C31.8121331,0 0,31.8121331 0,128 C0,224.187867 31.8121331,256 128,256 Z" fill="#FF6300"/><path d="M83.242269,124.117976 C88.7771879,125.169992 93.2857811,127.524367 97.6121738,130.472891 L98.0110402,130.746729 C98.1438395,130.838557 98.276491,130.930928 98.4090191,131.023819 L98.8062582,131.304036 C98.8724113,131.350992 98.9385396,131.398074 99.0046464,131.445279 L99.4010522,131.729955 L99.4010522,131.729955 L99.797087,132.017449 L99.797087,132.017449 L100.192898,132.307637 L100.192898,132.307637 L100.588634,132.600396 L100.588634,132.600396 L101.182417,133.044083 L101.182417,133.044083 L101.776859,133.492858 L101.776859,133.492858 L102.372458,133.946302 L102.372458,133.946302 L102.969712,134.403997 L102.969712,134.403997 L105.566645,136.408196 L105.566645,136.408196 L106.234466,136.922016 L106.234466,136.922016 L106.908021,137.437698 L106.908021,137.437698 L107.587948,137.954708 C117.951744,145.803393 130.735012,153.925636 155.97276,153.925636 C165.268996,153.925636 173.479188,152.823348 180.603204,150.618568 L180.603204,210.16047 C180.603204,219.014318 173.425277,226.191781 164.571429,226.191781 L91.4285714,226.191781 C82.5747228,226.191781 75.3969506,219.014318 75.3969506,210.16047 L75.3969506,123.275996 C77.9522222,123.328359 80.5673368,123.609026 83.242269,124.117976 Z M164.571429,29.8082192 C173.425277,29.8082192 180.602894,36.9856817 180.602894,45.8395303 L180.602894,133.478876 C178.046372,133.426632 175.429856,133.14595 172.753346,132.636849 C167.73193,131.679962 163.554583,129.651222 159.590923,127.080267 L159.188551,126.816966 C158.786867,126.551836 158.387172,126.281285 157.988802,126.005869 L157.59085,125.728852 L157.59085,125.728852 L157.193635,125.448716 C157.127485,125.401773 157.061361,125.354706 156.995257,125.307516 L156.598871,125.022933 C156.532841,124.975265 156.466827,124.927479 156.400825,124.879579 L156.004935,124.590827 C155.93897,124.54248 155.873011,124.494023 155.807055,124.44546 L155.411331,124.152818 L155.411331,124.152818 L155.015534,123.857737 L155.015534,123.857737 L154.619516,123.560341 L154.619516,123.560341 L154.223129,123.260755 L154.223129,123.260755 L153.627536,122.807538 L153.627536,122.807538 L152.430881,121.888821 L152.430881,121.888821 L150.433343,120.346621 L150.433343,120.346621 L149.765503,119.832785 L149.765503,119.832785 L149.091919,119.31708 C138.603571,111.311924 125.815586,102.825832 100.02724,102.825832 C90.7308467,102.825832 82.520534,103.928483 75.3964349,106.133787 L75.3964349,45.8395303 C75.3964349,36.9856817 82.5747228,29.8082192 91.4285714,29.8082192 L164.571429,29.8082192 Z" fill="#FFF" fill-rule="nonzero"/></g></svg>