<svg width="256" height="256" viewBox="0 0 256 256" fill="none" xmlns="http://www.w3.org/2000/svg">
<path d="M0 44C0 19.6995 19.6995 0 44 0H212C236.301 0 256 19.6995 256 44V212C256 236.301 236.301 256 212 256H44C19.6995 256 0 236.301 0 212V44Z" fill="url(#paint0_linear_502_34)"/>
<path d="M32 49C32 46.7909 33.7909 45 36 45H76C78.2091 45 80 46.7909 80 49V206C80 208.209 78.2091 210 76 210H36C33.7909 210 32 208.209 32 206V49Z" fill="#AF98F5"/>
<path d="M82 49C82 46.7909 83.7909 45 86 45H126C128.209 45 130 46.7909 130 49V206C130 208.209 128.209 210 126 210H86C83.7909 210 82 208.209 82 206V49Z" fill="#AF98F5"/>
<path d="M132 49C132 46.7909 133.791 45 136 45H176C178.209 45 180 46.7909 180 49V206C180 208.209 178.209 210 176 210H136C133.791 210 132 208.209 132 206V49Z" fill="#AF98F5"/>
<path d="M182 49C182 46.7909 183.791 45 186 45H226C228.209 45 230 46.7909 230 49V206C230 208.209 228.209 210 226 210H186C183.791 210 182 208.209 182 206V49Z" fill="#AF98F5"/>
<path d="M32 49C32 46.7909 33.7909 45 36 45H76C78.2091 45 80 46.7909 80 49V206C80 208.209 78.2091 210 76 210H36C33.7909 210 32 208.209 32 206V49Z" fill="white"/>
<path d="M82 49C82 46.7909 83.7909 45 86 45H126C128.209 45 130 46.7909 130 49V177C130 179.209 128.209 181 126 181H86C83.7909 181 82 179.209 82 177V49Z" fill="white"/>
<path d="M132 49C132 46.7909 133.791 45 136 45H176C178.209 45 180 46.7909 180 49V133C180 135.209 178.209 137 176 137H136C133.791 137 132 135.209 132 133V49Z" fill="white"/>
<path d="M182 49C182 46.7909 183.791 45 186 45H226C228.209 45 230 46.7909 230 49V100C230 102.209 228.209 104 226 104H186C183.791 104 182 102.209 182 100V49Z" fill="white"/>
<defs>
<linearGradient id="paint0_linear_502_34" x1="0.149803" y1="0.299607" x2="0.149803" y2="256" gradientUnits="userSpaceOnUse">
<stop stop-color="#7749FF"/>
<stop offset="1" stop-color="#5021DD"/>
</linearGradient>
</defs>
</svg>
