<svg width="256" height="256" viewBox="0 0 256 256" fill="none" xmlns="http://www.w3.org/2000/svg">
<path d="M0 44C0 19.6995 19.6995 0 44 0H212C236.301 0 256 19.6995 256 44V212C256 236.301 236.301 256 212 256H44C19.6995 256 0 236.301 0 212V44Z" fill="url(#paint0_linear_602_38)"/>
<path d="M29 50C29 47.7909 30.7909 46 33 46H223C225.209 46 227 47.7909 227 50V207C227 209.209 225.209 211 223 211H33C30.7909 211 29 209.209 29 207V50Z" fill="#AF98F5"/>
<path d="M29 50C29 47.7909 30.7909 46 33 46H128L156.007 66.0922C170.705 76.6363 171.08 98.368 156.755 109.413L105.171 149.186C91.4867 159.737 91.0978 180.248 104.372 191.31L128 211H33C30.7909 211 29 209.209 29 207V50Z" fill="white"/>
<defs>
<linearGradient id="paint0_linear_602_38" x1="0.149803" y1="0.299607" x2="0.149803" y2="256" gradientUnits="userSpaceOnUse">
<stop stop-color="#7749FF"/>
<stop offset="1" stop-color="#5021DD"/>
</linearGradient>
</defs>
</svg>
