<?xml version="1.0" encoding="iso-8859-1"?>
<!-- Generator: Adobe Illustrator 19.0.0, SVG Export Plug-In . SVG Version: 6.00 Build 0)  -->
<svg xmlns="http://www.w3.org/2000/svg" xmlns:xlink="http://www.w3.org/1999/xlink" version="1.1" id="Layer_1" x="0px" y="0px" viewBox="0 0 512 512" style="enable-background:new 0 0 512 512;" xml:space="preserve" width="512px" height="512px">
<g>
	<g>
		<g>
			<path d="M256,234.667c-11.76,0-21.333,9.573-21.333,21.333s9.573,21.333,21.333,21.333s21.333-9.573,21.333-21.333     S267.76,234.667,256,234.667z" fill="#FFFFFF"/>
			<path d="M256,0C114.844,0,0,114.844,0,256s114.844,256,256,256s256-114.844,256-256S397.156,0,256,0z M127.563,138.667     c-2.719,0-5.448-1.042-7.531-3.115c-4.167-4.156-4.188-10.906-0.021-15.083C156.292,84.052,204.594,64,256,64     c5.896,0,10.667,4.771,10.667,10.667c0,5.896-4.771,10.667-10.667,10.667c-45.698,0-88.625,17.823-120.885,50.198     C133.031,137.625,130.302,138.667,127.563,138.667z M256,362.667c-58.813,0-106.667-47.854-106.667-106.667     S197.188,149.333,256,149.333S362.667,197.188,362.667,256S314.813,362.667,256,362.667z" fill="#FFFFFF"/>
		</g>
	</g>
</g>
<g>
</g>
<g>
</g>
<g>
</g>
<g>
</g>
<g>
</g>
<g>
</g>
<g>
</g>
<g>
</g>
<g>
</g>
<g>
</g>
<g>
</g>
<g>
</g>
<g>
</g>
<g>
</g>
<g>
</g>
</svg>
