<?xml version="1.0" encoding="UTF-8"?>
<svg width="256px" height="97px" viewBox="0 0 256 97" version="1.1" xmlns="http://www.w3.org/2000/svg" xmlns:xlink="http://www.w3.org/1999/xlink">
    <title>pwa</title>
    <g id="Page-1" stroke="none" stroke-width="1" fill="none" fill-rule="evenodd">
        <g id="Artboard" transform="translate(-245.000000, -422.000000)" fill-rule="nonzero">
            <g id="pwa" transform="translate(245.000000, 422.059480)">
                <polygon id="Path" fill="#FFFFFF" points="188.409181 79.1217828 195.80459 60.4202744 217.158033 60.4202744 207.024263 32.0510942 219.698361 1.60093116e-05 256 96.3846023 229.228853 96.3846023 223.025574 79.1217828"></polygon>
                <polygon id="Path" fill="#5A0FC8" points="165.569836 96.3848648 204.431476 0.000152087213 178.667541 0.000280161967 152.083935 62.2862419 133.180328 0.000408235409 113.376918 0.000408235409 93.0794758 62.2862419 78.7652463 33.9038155 65.8114104 73.8122744 78.9634103 96.3848648 104.318295 96.3848648 122.660197 40.5278155 140.148197 96.3848648"></polygon>
                <path d="M24.4558693,63.2973894 L40.3251152,63.2973894 C45.1321971,63.2973894 49.4127217,62.7608649 53.1666889,61.6878154 L57.2706889,49.0441434 L68.7407219,13.7069631 C67.8667544,12.3217172 66.8689839,11.0119729 65.7474104,9.77790078 C59.8582299,3.2592254 51.2418364,0 39.8979676,0 L0,0 L0,96.3846023 L24.4558693,96.3846023 L24.4558693,63.2973894 Z M45.4612463,22.1742418 C47.7615742,24.4893893 48.911607,27.5874876 48.911607,31.4687991 C48.911607,35.3798811 47.900066,38.4817827 45.8771152,40.774504 C43.6594103,43.322045 39.5758693,44.5957499 33.6267545,44.5957499 L24.4558693,44.5957499 L24.4558693,18.7013237 L33.6941644,18.7013237 C39.2386889,18.7013237 43.1610496,19.8589631 45.4612463,22.1742418 Z" id="Shape" fill="#FFFFFF"></path>
            </g>
        </g>
    </g>
</svg>