<svg width="214" height="256" viewBox="0 0 214 256" xmlns="http://www.w3.org/2000/svg"><g fill="none"><path d="M199.436953,33.8717395 C175.665523,-0.151348548 128.716948,-10.2359207 94.7708887,11.3921951 L35.1532843,49.3892263 C18.8685064,59.6343236 7.65175808,76.2643774 4.25362498,95.2013437 C1.40973346,110.976997 3.90934629,127.250542 11.3567112,141.445462 C6.25357968,149.186607 2.7730228,157.88209 1.1253962,167.006377 C-2.30559003,186.306994 2.18246719,206.176038 13.5763685,222.127982 C37.3528273,256.15427 84.3016304,266.234498 118.242433,244.607525 L177.860037,206.610494 C194.145966,196.366585 205.363096,179.735966 208.759696,160.798377 C211.60321,145.022908 209.105558,128.749681 201.661867,114.553116 C206.763668,106.812148 210.242763,98.1170158 211.88884,88.9933433 C215.322094,69.6926741 210.833839,49.8227551 199.437867,33.8717395" fill="#FF3E00"/><path d="M88.9411254,225.364668 C69.7185904,230.362874 49.4191558,222.838506 38.0984756,206.518882 C31.2431641,196.923582 28.5426872,184.971051 30.606895,173.360533 C30.9529098,171.473565 31.4290824,169.612802 32.032001,167.791577 L33.155075,164.367023 L36.210376,166.611114 C43.266361,171.795648 51.1557103,175.737462 59.5383981,178.266665 L61.7548231,178.939092 L61.5506486,181.151173 C61.2798234,184.29812 62.1319285,187.439326 63.9559293,190.018017 C67.3628116,194.933827 73.4746098,197.20229 79.2637577,195.699692 C80.5598115,195.353286 81.7951483,194.810373 82.9267807,194.089845 L142.563567,156.085953 C145.514025,154.228097 147.547382,151.215316 148.166591,147.784076 C148.784728,144.284676 147.971218,140.683645 145.908782,137.789815 C142.499864,132.872985 136.386537,130.603557 130.595009,132.104939 C129.300662,132.451372 128.066968,132.993889 126.936788,133.713642 L104.179905,148.220548 C100.437818,150.599842 96.3540431,152.393187 92.0700484,153.538459 C72.8476753,158.536371 52.5485601,151.011929 41.2280843,134.692444 C34.3724965,125.097355 31.6719903,113.144776 33.7365036,101.534323 C35.7801554,90.1435456 42.5281523,80.1408232 52.3248423,73.9803694 L111.95637,35.9732758 C115.700048,33.5900757 119.786739,31.7944759 124.074229,30.6489628 C143.296478,25.6511784 163.595418,33.1754984 174.915964,49.4947489 C181.771276,59.0900487 184.471753,71.0425807 182.407545,82.6530984 C182.060038,84.5397384 181.583891,86.4003994 180.982439,88.2220545 L179.859365,91.6466079 L176.805664,89.4059466 C169.750176,84.2184463 161.860069,80.2748237 153.476042,77.7453654 L151.259617,77.0727099 L151.463791,74.860629 C151.732288,71.7139628 150.880394,68.5736153 149.058511,65.9940143 C145.651628,61.0782042 139.53983,58.8097404 133.750682,60.3123389 C132.454628,60.6587444 131.219292,61.2016572 130.08766,61.922185 L70.4508732,99.9276782 C67.50082,101.784073 65.4686077,104.796664 64.8521936,108.227268 C64.2302306,111.726504 65.0423742,115.328826 67.1056581,118.222673 C70.5146199,123.139447 76.6279066,125.408861 82.4194311,123.907549 C83.7151633,123.560433 84.9503197,123.017566 86.0822252,122.297703 L108.836135,107.796284 C112.576603,105.413854 116.660195,103.61892 120.94462,102.474029 C140.166993,97.4761166 160.466109,105.000559 171.786584,121.320044 C178.642172,130.915133 181.342678,142.867712 179.278166,154.478164 C177.233174,165.869534 170.485663,175.873113 160.689827,182.036463 L101.05807,220.040355 C97.3143922,222.423555 93.2277004,224.219155 88.9402109,225.364668" fill="#FFF"/></g></svg>